<?xml version="1.0" encoding="utf-8"?>
<!-- Generator: Adobe Illustrator 27.5.0, SVG Export Plug-In . SVG Version: 6.00 Build 0)  -->
<svg version="1.1" id="Layer_1" xmlns="http://www.w3.org/2000/svg" xmlns:xlink="http://www.w3.org/1999/xlink" x="0px" y="0px"
	 viewBox="0 0 512 512" style="enable-background:new 0 0 512 512;" xml:space="preserve">
<g>
	<path d="M109.71,0C89.49,0,73.14,16.34,73.14,36.57v73.14c-20.23,0-36.57,16.34-36.57,36.57s16.34,36.57,36.57,36.57v36.57
		c-20.23,0-36.57,16.34-36.57,36.57s16.34,36.57,36.57,36.57v73.14v109.71c0,20.23,16.34,36.57,36.57,36.57s36.57-16.34,36.57-36.57
		v-73.14h91.43c78.17,0,145.94-44.57,179.2-109.71h21.94c20.23,0,36.57-16.34,36.57-36.57s-16.34-36.57-36.57-36.57h-0.8
		c0.57-6.06,0.8-12.11,0.8-18.29c0-6.17-0.23-12.23-0.8-18.29h0.8c20.23,0,36.57-16.34,36.57-36.57s-16.34-36.57-36.57-36.57h-21.94
		C383.66,44.57,315.89,0,237.71,0H109.71z M327.31,109.71H146.29V73.14h91.43C272.57,73.14,304.23,87.09,327.31,109.71z
		 M146.29,182.86h218.17c0.8,5.94,1.26,12.11,1.26,18.29c0,6.17-0.46,12.34-1.26,18.29H146.29V182.86z M327.31,292.57
		c-23.09,22.63-54.74,36.57-89.6,36.57h-91.43v-36.57H327.31z" fill="#232529"/>
</g>
</svg>
